<svg xmlns="http://www.w3.org/2000/svg" xmlns:xlink="http://www.w3.org/1999/xlink" version="1.1" x="0px" y="0px" viewBox="0 0 100 125" enable-background="new 0 0 100 100" xml:space="preserve"><g><path class="myPath" d="M62.084,14.354c-0.251,0.056-0.475,0.225-0.586,0.477c-1.592,3.622-2.68,7.271-2.987,11.034   c-0.446-0.028-0.893,0-1.312,0.028c-0.028,0-0.028,0-0.056,0c-0.084-0.028-0.168-0.028-0.279-0.028   c0,0.028-0.028,0.028-0.056,0.028c-0.308,0.056-0.614,0.112-0.922,0.168c-0.335,0.084-0.642,0.14-0.948,0.225   c-0.112,0.028-0.195,0.056-0.308,0.084c0,0-0.027,0.028-0.056,0.028c-0.084,0.028-0.167,0.056-0.224,0.084   c-0.307,0.084-0.613,0.225-0.921,0.337c-0.027,0-0.056,0-0.084,0.028c-4.466,1.881-7.815,6.232-7.788,11.539c0,0,0,0,0,0.028   c-0.028,26.334-9.714,31.051-16.246,41.69c-0.614,0.983-0.726,2.021-0.391,2.892c0.335,0.871,1.033,1.517,1.871,1.938   c1.703,0.842,3.991,0.982,6.029,0.253c8.123-3.061,15.659-10.472,21.688-18.782c6.002-8.31,10.496-17.518,12.311-24.34   c1.145-4.211,0-8.506-2.652-11.623c0-0.056-0.027-0.084-0.056-0.112c0,0-0.028-0.028-0.028-0.056c-0.027,0-0.027-0.028-0.027-0.028   c0-0.028-0.028-0.028-0.028-0.028c-0.195-0.224-0.418-0.421-0.614-0.617c-0.167-0.168-0.335-0.337-0.502-0.478   c-0.14-0.14-0.279-0.252-0.446-0.365c-0.168-0.141-0.335-0.309-0.503-0.421c-0.056-0.028-0.111-0.056-0.14-0.084   c-0.027,0-0.056-0.028-0.084-0.028c-0.753-0.505-1.563-0.955-2.428-1.319c0.81-3.341,1.563-6.513,4.02-9.04   c0.362-0.365,0.223-1.067-0.224-1.263l-4.55-2.162C62.419,14.354,62.252,14.325,62.084,14.354L62.084,14.354z M62.698,16.234   l2.875,1.376c-2.4,2.892-3.183,6.289-3.936,9.517c-0.112,0.365,0.111,0.786,0.475,0.926c1.646,0.59,3.042,1.601,4.215,2.779   c-0.14,0.281-0.224,0.59-0.252,0.898c-0.056,0.618,0,1.32,0.14,2.05c0.057,0.365,0.14,0.729,0.224,1.095   c-1.089-1.319-2.316-2.583-4.048-3.622c-0.362-0.225-0.865-0.084-1.088,0.281l-2.373,3.874l-0.195-3.846   c0-0.477-0.559-0.87-1.033-0.702l-4.103,1.46c0.278-0.281,0.586-0.534,0.81-0.842c0.446-0.59,0.753-1.264,0.781-2.049   c0.027-0.449-0.111-0.927-0.308-1.404c1.368-0.449,2.764-0.702,4.243-0.618c0.391,0.028,0.81-0.337,0.838-0.73   C60.158,23.197,61.219,19.716,62.698,16.234L62.698,16.234z M53.431,28.531c0.168,0.337,0.195,0.589,0.195,0.842   c-0.027,0.365-0.167,0.73-0.502,1.151c-0.643,0.87-1.87,1.881-2.987,3.116c-0.446,0.533,0.195,1.46,0.838,1.263l6.252-2.189   l0.224,5.334c0.028,0.674,1.089,0.955,1.451,0.393l3.267-5.334c2.121,1.488,3.572,3.341,5.108,5.334   c0.195,0.281,0.586,0.393,0.921,0.252c0.307-0.14,0.53-0.505,0.475-0.842c-0.224-1.404-0.698-3.032-0.922-4.352   c-0.056-0.449-0.083-0.814-0.083-1.151c1.814,2.639,2.54,5.98,1.646,9.293c-1.759,6.541-6.169,15.666-12.059,23.835   c-5.918,8.141-13.343,15.356-20.991,18.22c-1.535,0.562-3.545,0.421-4.745-0.168c-0.614-0.31-1.005-0.73-1.145-1.096   c-0.167-0.393-0.167-0.813,0.251-1.487c6.28-10.22,16.469-15.778,16.497-42.533c0-0.028,0-0.028,0-0.028   C47.094,33.949,49.774,30.3,53.431,28.531L53.431,28.531z"/></g><text x="0" y="115" fill="#000000" font-size="5px" font-weight="bold" font-family="'Helvetica Neue', Helvetica, Arial-Unicode, Arial, Sans-serif">Created by artworkbean</text><text x="0" y="120" fill="#000000" font-size="5px" font-weight="bold" font-family="'Helvetica Neue', Helvetica, Arial-Unicode, Arial, Sans-serif">from the Noun Project</text></svg>